<?xml version="1.0" encoding="UTF-8"?>
<svg xmlns="http://www.w3.org/2000/svg" xmlns:xlink="http://www.w3.org/1999/xlink" width="110px" height="110px" viewBox="0 0 110 110" version="1.1">
<defs>
<radialGradient id="radial0" gradientUnits="userSpaceOnUse" cx="0" cy="0" fx="0" fy="0" r="1" gradientTransform="matrix(36.807355,36.268989,-36.321211,36.860352,24.403042,21.950194)">
<stop offset="0" style="stop-color:rgb(99.607843%,94.117647%,0%);stop-opacity:1;"/>
<stop offset="0.40625" style="stop-color:rgb(98.823529%,78.823529%,5.490196%);stop-opacity:1;"/>
<stop offset="0.760417" style="stop-color:rgb(97.254902%,66.666667%,1.960784%);stop-opacity:1;"/>
</radialGradient>
<linearGradient id="linear0" gradientUnits="userSpaceOnUse" x1="29.1134" y1="35.0605" x2="39.9917" y2="62.8605" gradientTransform="matrix(1.527778,0,0,1.527778,0,0)">
<stop offset="0" style="stop-color:rgb(78.039216%,85.882353%,100%);stop-opacity:1;"/>
<stop offset="1" style="stop-color:rgb(70.980392%,79.607843%,87.45098%);stop-opacity:0;"/>
</linearGradient>
<linearGradient id="linear1" gradientUnits="userSpaceOnUse" x1="36.8489" y1="64.1438" x2="36.0866" y2="26.5996" gradientTransform="matrix(1.527778,0,0,1.527778,0,0)">
<stop offset="0" style="stop-color:rgb(76.470588%,81.568627%,90.588235%);stop-opacity:1;"/>
<stop offset="0.257422" style="stop-color:rgb(81.568627%,87.843137%,93.333333%);stop-opacity:0;"/>
</linearGradient>
<radialGradient id="radial1" gradientUnits="userSpaceOnUse" cx="0" cy="0" fx="0" fy="0" r="1" gradientTransform="matrix(-16.61947,-31.392692,36.329691,-19.233146,40.785556,96.036722)">
<stop offset="0.629385" style="stop-color:rgb(72.156863%,80.392157%,87.45098%);stop-opacity:0;"/>
<stop offset="1" style="stop-color:rgb(58.431373%,69.019608%,78.039216%);stop-opacity:1;"/>
</radialGradient>
<radialGradient id="radial2" gradientUnits="userSpaceOnUse" cx="0" cy="0" fx="0" fy="0" r="1" gradientTransform="matrix(0.000000000000003053,-49.858722,49.858722,0.000000000000003053,59.251194,90.497)">
<stop offset="0.6875" style="stop-color:rgb(72.156863%,80.392157%,87.45098%);stop-opacity:0;"/>
<stop offset="1" style="stop-color:rgb(62.745098%,73.72549%,82.745098%);stop-opacity:1;"/>
</radialGradient>
<radialGradient id="radial3" gradientUnits="userSpaceOnUse" cx="0" cy="0" fx="0" fy="0" r="1" gradientTransform="matrix(21.667078,-32.500577,32.500577,21.667078,74.271083,90.620292)">
<stop offset="0.382649" style="stop-color:rgb(72.156863%,80.392157%,87.45098%);stop-opacity:0;"/>
<stop offset="1" style="stop-color:rgb(63.921569%,72.54902%,80%);stop-opacity:1;"/>
</radialGradient>
</defs>
<g id="surface1">
<path style=" stroke:none;fill-rule:evenodd;fill:url(#radial0);" d="M 17.480469 44.601562 C 31.640625 44.601562 43.121094 33.121094 43.121094 18.960938 C 43.121094 15.921875 42.589844 13.003906 41.621094 10.300781 C 41.203125 9.144531 42.242188 7.929688 43.382812 8.382812 C 53.828125 12.550781 61.210938 22.757812 61.210938 34.691406 C 61.210938 50.328125 48.535156 63.003906 32.894531 63.003906 C 20.761719 63.003906 10.410156 55.371094 6.382812 44.644531 C 5.949219 43.496094 7.1875 42.484375 8.332031 42.921875 C 11.175781 44.007812 14.257812 44.601562 17.480469 44.601562 Z M 17.480469 44.601562 "/>
<path style=" stroke:none;fill-rule:evenodd;fill:rgb(100%,100%,100%);fill-opacity:1;" d="M 33.398438 96.035156 L 85.039062 96.035156 C 85.058594 96.035156 85.082031 96.035156 85.105469 96.035156 C 96.324219 96.035156 105.417969 86.941406 105.417969 75.722656 C 105.417969 64.503906 96.324219 55.410156 85.105469 55.410156 C 84.660156 55.410156 84.214844 55.425781 83.777344 55.453125 C 79.140625 46.644531 69.898438 40.640625 59.25 40.640625 C 45.832031 40.640625 34.644531 50.179688 32.09375 62.847656 C 23.527344 63.511719 16.78125 70.675781 16.78125 79.417969 C 16.78125 88.597656 24.21875 96.035156 33.398438 96.035156 Z M 33.398438 96.035156 "/>
<path style=" stroke:none;fill-rule:evenodd;fill:url(#linear0);" d="M 33.398438 96.035156 L 85.039062 96.035156 C 85.058594 96.035156 85.082031 96.035156 85.105469 96.035156 C 96.324219 96.035156 105.417969 86.941406 105.417969 75.722656 C 105.417969 64.503906 96.324219 55.410156 85.105469 55.410156 C 84.660156 55.410156 84.214844 55.425781 83.777344 55.453125 C 79.140625 46.644531 69.898438 40.640625 59.25 40.640625 C 45.832031 40.640625 34.644531 50.179688 32.09375 62.847656 C 23.527344 63.511719 16.78125 70.675781 16.78125 79.417969 C 16.78125 88.597656 24.21875 96.035156 33.398438 96.035156 Z M 33.398438 96.035156 "/>
<path style=" stroke:none;fill-rule:evenodd;fill:url(#linear1);" d="M 33.398438 96.035156 L 85.039062 96.035156 C 85.058594 96.035156 85.082031 96.035156 85.105469 96.035156 C 96.324219 96.035156 105.417969 86.941406 105.417969 75.722656 C 105.417969 64.503906 96.324219 55.410156 85.105469 55.410156 C 84.660156 55.410156 84.214844 55.425781 83.777344 55.453125 C 79.140625 46.644531 69.898438 40.640625 59.25 40.640625 C 45.832031 40.640625 34.644531 50.179688 32.09375 62.847656 C 23.527344 63.511719 16.78125 70.675781 16.78125 79.417969 C 16.78125 88.597656 24.21875 96.035156 33.398438 96.035156 Z M 33.398438 96.035156 "/>
<path style=" stroke:none;fill-rule:nonzero;fill:url(#radial1);" d="M 16.78125 79.417969 C 16.78125 70.238281 24.21875 62.796875 33.398438 62.796875 L 38.9375 62.796875 C 51.175781 62.796875 61.097656 72.71875 61.097656 84.957031 L 61.097656 96.035156 L 33.398438 96.035156 C 24.21875 96.035156 16.78125 88.597656 16.78125 79.417969 Z M 16.78125 79.417969 "/>
<path style=" stroke:none;fill-rule:nonzero;fill:url(#radial2);" d="M 31.550781 68.335938 C 31.550781 53.039062 43.953125 40.640625 59.25 40.640625 C 74.550781 40.640625 86.949219 53.039062 86.949219 68.335938 C 86.949219 83.636719 74.550781 96.035156 59.25 96.035156 C 43.953125 96.035156 31.550781 83.636719 31.550781 68.335938 Z M 31.550781 68.335938 "/>
<path style=" stroke:none;fill-rule:nonzero;fill:url(#radial3);" d="M 105.417969 75.722656 C 105.417969 86.941406 96.324219 96.039062 85.105469 96.039062 C 73.886719 96.039062 64.792969 86.941406 64.792969 75.722656 C 64.792969 64.503906 73.886719 55.410156 85.105469 55.410156 C 96.324219 55.410156 105.417969 64.503906 105.417969 75.722656 Z M 105.417969 75.722656 "/>
</g>
</svg>
