<?xml version="1.0" encoding="UTF-8"?>
<svg xmlns="http://www.w3.org/2000/svg" xmlns:xlink="http://www.w3.org/1999/xlink" width="433px" height="433px" viewBox="0 0 433 433" version="1.1">
<defs>
<radialGradient id="radial0" gradientUnits="userSpaceOnUse" cx="0" cy="0" fx="0" fy="0" r="1" gradientTransform="matrix(144.887133,142.76793,-142.973493,145.095748,96.059246,86.403947)">
<stop offset="0" style="stop-color:rgb(99.607843%,94.117647%,0%);stop-opacity:1;"/>
<stop offset="0.40625" style="stop-color:rgb(98.823529%,78.823529%,5.490196%);stop-opacity:1;"/>
<stop offset="0.760417" style="stop-color:rgb(97.254902%,66.666667%,1.960784%);stop-opacity:1;"/>
</radialGradient>
<linearGradient id="linear0" gradientUnits="userSpaceOnUse" x1="29.1134" y1="35.0605" x2="39.9917" y2="62.8605" gradientTransform="matrix(6.013889,0,0,6.013889,0,0)">
<stop offset="0" style="stop-color:rgb(78.039216%,85.882353%,100%);stop-opacity:1;"/>
<stop offset="1" style="stop-color:rgb(70.980392%,79.607843%,87.45098%);stop-opacity:0;"/>
</linearGradient>
<linearGradient id="linear1" gradientUnits="userSpaceOnUse" x1="36.8489" y1="64.1438" x2="36.0866" y2="26.5996" gradientTransform="matrix(6.013889,0,0,6.013889,0,0)">
<stop offset="0" style="stop-color:rgb(76.470588%,81.568627%,90.588235%);stop-opacity:1;"/>
<stop offset="0.257422" style="stop-color:rgb(81.568627%,87.843137%,93.333333%);stop-opacity:0;"/>
</linearGradient>
<radialGradient id="radial1" gradientUnits="userSpaceOnUse" cx="0" cy="0" fx="0" fy="0" r="1" gradientTransform="matrix(-65.420278,-123.573051,143.006874,-75.708655,160.546778,378.035461)">
<stop offset="0.629385" style="stop-color:rgb(72.156863%,80.392157%,87.45098%);stop-opacity:0;"/>
<stop offset="1" style="stop-color:rgb(58.431373%,69.019608%,78.039216%);stop-opacity:1;"/>
</radialGradient>
<radialGradient id="radial2" gradientUnits="userSpaceOnUse" cx="0" cy="0" fx="0" fy="0" r="1" gradientTransform="matrix(0.000000000000012018,-196.262061,196.262061,0.000000000000012018,233.234247,356.2291)">
<stop offset="0.6875" style="stop-color:rgb(72.156863%,80.392157%,87.45098%);stop-opacity:0;"/>
<stop offset="1" style="stop-color:rgb(62.745098%,73.72549%,82.745098%);stop-opacity:1;"/>
</radialGradient>
<radialGradient id="radial3" gradientUnits="userSpaceOnUse" cx="0" cy="0" fx="0" fy="0" r="1" gradientTransform="matrix(85.289498,-127.93409,127.93409,85.289498,292.357992,356.714421)">
<stop offset="0.382649" style="stop-color:rgb(72.156863%,80.392157%,87.45098%);stop-opacity:0;"/>
<stop offset="1" style="stop-color:rgb(63.921569%,72.54902%,80%);stop-opacity:1;"/>
</radialGradient>
</defs>
<g id="surface1">
<path style=" stroke:none;fill-rule:evenodd;fill:url(#radial0);" d="M 68.8125 175.566406 C 124.550781 175.566406 169.734375 130.382812 169.734375 74.644531 C 169.734375 62.675781 167.652344 51.195312 163.828125 40.542969 C 162.195312 35.996094 166.277344 31.207031 170.765625 33 C 211.886719 49.402344 240.945312 89.585938 240.945312 136.558594 C 240.945312 198.113281 191.046875 248.011719 129.492188 248.011719 C 81.726562 248.011719 40.980469 217.960938 25.121094 175.738281 C 23.425781 171.214844 28.292969 167.230469 32.804688 168.953125 C 43.988281 173.226562 56.125 175.566406 68.8125 175.566406 Z M 68.8125 175.566406 "/>
<path style=" stroke:none;fill-rule:evenodd;fill:rgb(100%,100%,100%);fill-opacity:1;" d="M 131.472656 378.035156 L 334.742188 378.035156 C 334.828125 378.035156 334.917969 378.035156 335.003906 378.035156 C 379.164062 378.035156 414.960938 342.238281 414.960938 298.078125 C 414.960938 253.917969 379.164062 218.121094 335.003906 218.121094 C 333.25 218.121094 331.507812 218.175781 329.78125 218.285156 C 311.53125 183.609375 275.144531 159.96875 233.234375 159.96875 C 180.414062 159.96875 136.367188 197.527344 126.339844 247.394531 C 92.609375 250.007812 66.050781 278.210938 66.050781 312.613281 C 66.050781 348.746094 95.339844 378.035156 131.472656 378.035156 Z M 131.472656 378.035156 "/>
<path style=" stroke:none;fill-rule:evenodd;fill:url(#linear0);" d="M 131.472656 378.035156 L 334.742188 378.035156 C 334.828125 378.035156 334.917969 378.035156 335.003906 378.035156 C 379.164062 378.035156 414.960938 342.238281 414.960938 298.078125 C 414.960938 253.917969 379.164062 218.121094 335.003906 218.121094 C 333.25 218.121094 331.507812 218.175781 329.78125 218.285156 C 311.53125 183.609375 275.144531 159.96875 233.234375 159.96875 C 180.414062 159.96875 136.367188 197.527344 126.339844 247.394531 C 92.609375 250.007812 66.050781 278.210938 66.050781 312.613281 C 66.050781 348.746094 95.339844 378.035156 131.472656 378.035156 Z M 131.472656 378.035156 "/>
<path style=" stroke:none;fill-rule:evenodd;fill:url(#linear1);" d="M 131.472656 378.035156 L 334.742188 378.035156 C 334.828125 378.035156 334.917969 378.035156 335.003906 378.035156 C 379.164062 378.035156 414.960938 342.238281 414.960938 298.078125 C 414.960938 253.917969 379.164062 218.121094 335.003906 218.121094 C 333.25 218.121094 331.507812 218.175781 329.78125 218.285156 C 311.53125 183.609375 275.144531 159.96875 233.234375 159.96875 C 180.414062 159.96875 136.367188 197.527344 126.339844 247.394531 C 92.609375 250.007812 66.050781 278.210938 66.050781 312.613281 C 66.050781 348.746094 95.339844 378.035156 131.472656 378.035156 Z M 131.472656 378.035156 "/>
<path style=" stroke:none;fill-rule:nonzero;fill:url(#radial1);" d="M 66.050781 312.613281 C 66.050781 276.484375 95.339844 247.195312 131.472656 247.195312 L 153.277344 247.195312 C 201.453125 247.195312 240.503906 286.246094 240.503906 334.421875 L 240.503906 378.035156 L 131.472656 378.035156 C 95.339844 378.035156 66.050781 348.746094 66.050781 312.613281 Z M 66.050781 312.613281 "/>
<path style=" stroke:none;fill-rule:nonzero;fill:url(#radial2);" d="M 124.199219 269 C 124.199219 208.785156 173.015625 159.96875 233.234375 159.96875 C 293.453125 159.96875 342.269531 208.785156 342.269531 269 C 342.269531 329.21875 293.453125 378.035156 233.234375 378.035156 C 173.015625 378.035156 124.199219 329.21875 124.199219 269 Z M 124.199219 269 "/>
<path style=" stroke:none;fill-rule:nonzero;fill:url(#radial3);" d="M 414.960938 298.078125 C 414.960938 342.238281 379.164062 378.039062 335.003906 378.039062 C 290.84375 378.039062 255.042969 342.238281 255.042969 298.078125 C 255.042969 253.917969 290.84375 218.121094 335.003906 218.121094 C 379.164062 218.121094 414.960938 253.917969 414.960938 298.078125 Z M 414.960938 298.078125 "/>
</g>
</svg>
