<?xml version="1.0" encoding="UTF-8"?>
<svg xmlns="http://www.w3.org/2000/svg" xmlns:xlink="http://www.w3.org/1999/xlink" width="256px" height="256px" viewBox="0 0 256 256" version="1.1">
<g id="surface1">
<path style=" stroke:none;fill-rule:nonzero;fill:rgb(0%,0%,0%);fill-opacity:1;" d="M 136.449219 189.367188 C 136.449219 188.519531 136.449219 188.519531 136.449219 187.675781 L 136.449219 59.71875 C 136.449219 54.589844 133.0625 51.199219 127.933594 51.199219 C 122.804688 51.199219 119.414062 55.480469 119.414062 59.71875 L 119.414062 187.675781 C 119.414062 188.519531 119.414062 188.519531 119.414062 189.367188 C 109.15625 192.804688 102.378906 202.167969 102.378906 213.230469 C 102.378906 227.722656 113.484375 238.828125 127.976562 238.828125 C 142.472656 238.828125 153.578125 227.722656 153.578125 213.230469 C 153.53125 202.167969 146.707031 192.804688 136.449219 189.367188 Z M 136.449219 189.367188 "/>
<path style=" stroke:none;fill-rule:nonzero;fill:rgb(0%,0%,0%);fill-opacity:1;" d="M 153.53125 179.15625 L 153.53125 25.601562 C 153.53125 11.105469 142.429688 0 127.933594 0 C 113.4375 0 102.332031 11.953125 102.332031 25.601562 L 102.332031 179.109375 C 92.074219 186.78125 85.296875 199.582031 85.296875 213.230469 C 85.296875 237.089844 104.074219 255.867188 127.933594 255.867188 C 151.792969 255.867188 170.570312 237.089844 170.570312 213.230469 C 170.570312 199.582031 163.746094 186.828125 153.53125 179.15625 Z M 127.933594 247.390625 C 109.15625 247.390625 93.816406 232.050781 93.816406 213.273438 C 93.816406 200.472656 100.636719 189.414062 110.851562 183.4375 L 110.851562 25.601562 C 110.851562 16.234375 118.523438 8.5625 127.886719 8.5625 C 137.253906 8.5625 144.925781 16.234375 144.925781 25.601562 L 144.925781 183.390625 C 155.183594 189.367188 161.960938 200.429688 161.960938 213.230469 C 162.050781 232.003906 146.707031 247.390625 127.933594 247.390625 Z M 127.933594 247.390625 "/>
</g>
</svg>
